HIERARCHY
ROOT Hips
{
	OFFSET -0.001795 -0.223333 0.028219
	CHANNELS 6 Xposition Yposition Zposition Zrotation Yrotation Xrotation 
	JOINT LeftUpLeg
	{
		OFFSET 0.069520 -0.091406 -0.006815
		CHANNELS 3 Zrotation Yrotation Xrotation
		JOINT LeftLeg
		{
			OFFSET 0.034277 -0.375199 -0.004496
			CHANNELS 3 Zrotation Yrotation Xrotation
			JOINT LeftFoot
			{
				OFFSET -0.013596 -0.397961 -0.043693
				CHANNELS 3 Zrotation Yrotation Xrotation
				JOINT LeftToe
				{
					OFFSET 0.026358 -0.055791 0.119288
					CHANNELS 3 Zrotation Yrotation Xrotation
					End Site
					{
						OFFSET 0.000000 0.000000 0.000000
					}
				}
			}
		}
	}
	JOINT RightUpLeg
	{
		OFFSET -0.067670 -0.090522 -0.004320
		CHANNELS 3 Zrotation Yrotation Xrotation
		JOINT RightLeg
		{
			OFFSET -0.038290 -0.382569 -0.008850
			CHANNELS 3 Zrotation Yrotation Xrotation
			JOINT RightFoot
			{
				OFFSET 0.015774 -0.398415 -0.042312
				CHANNELS 3 Zrotation Yrotation Xrotation
				JOINT RightToe
				{
					OFFSET -0.025372 -0.048144 0.123348
					CHANNELS 3 Zrotation Yrotation Xrotation
					End Site
					{
						OFFSET 0.000000 0.000000 0.000000
					}
				}
			}
		}
	}
	JOINT Spine
	{
		OFFSET -0.002533 0.108963 -0.026696
		CHANNELS 3 Zrotation Yrotation Xrotation
		JOINT Spine1
		{
			OFFSET 0.005487 0.135180 0.001092
			CHANNELS 3 Zrotation Yrotation Xrotation
			JOINT Spine2
			{
				OFFSET 0.001457 0.052922 0.025425
				CHANNELS 3 Zrotation Yrotation Xrotation
				JOINT Neck
				{
					OFFSET -0.002778 0.213870 -0.042857
					CHANNELS 3 Zrotation Yrotation Xrotation
					JOINT Head
					{
						OFFSET 0.005152 0.064970 0.051349
						CHANNELS 3 Zrotation Yrotation Xrotation
						End Site
						{
							OFFSET 0.000000 0.000000 0.000000
						}
					}
				}
				JOINT LeftShoulder
				{
					OFFSET 0.078845 0.121749 -0.034090
					CHANNELS 3 Zrotation Yrotation Xrotation
					JOINT LeftArm
					{
						OFFSET 0.090977 0.030469 -0.008868
						CHANNELS 3 Zrotation Yrotation Xrotation
						JOINT LeftForeArm
						{
							OFFSET 0.259612 -0.012772 -0.027456
							CHANNELS 3 Zrotation Yrotation Xrotation
							JOINT LeftHand
							{
								OFFSET 0.249234 0.008986 -0.001171
								CHANNELS 3 Zrotation Yrotation Xrotation
								End Site
								{
									OFFSET 0.000000 0.000000 0.000000
								}
							}
						}
					}
				}
				JOINT RightShoulder
				{
					OFFSET -0.081759 0.118833 -0.038615
					CHANNELS 3 Zrotation Yrotation Xrotation
					JOINT RightArm
					{
						OFFSET -0.096012 0.032551 -0.009143
						CHANNELS 3 Zrotation Yrotation Xrotation
						JOINT RightForeArm
						{
							OFFSET -0.253742 -0.013329 -0.021401
							CHANNELS 3 Zrotation Yrotation Xrotation
							JOINT RightHand
							{
								OFFSET -0.255298 0.007772 -0.005559
								CHANNELS 3 Zrotation Yrotation Xrotation
								End Site
								{
									OFFSET 0.000000 0.000000 0.000000
								}
							}
						}
					}
				}
			}
		}
	}
}
MOTION
Frames: 13
Frame Time: 0.050000
-0.025403 0.931288 -0.031133 -2.555236 -3.777459 -0.136754 11.855473 0.635106 -28.915990 -6.419560 2.015595 33.939173 4.034664 11.502216 16.272203 0.000000 0.000000 0.000000 -4.509528 1.474427 -20.036945 6.237956 -0.723483 30.019510 -9.372508 -22.376234 14.701615 0.000000 0.000000 0.000000 -6.995757 1.118478 32.971947 5.547038 -1.824913 -10.972122 0.908480 3.524399 29.652087 -0.472298 1.990099 -21.917242 0.000000 0.000000 0.000000 -8.783901 -15.249670 6.023360 -56.487390 -43.304970 12.526234 167.456781 -41.767547 -131.288325 0.000000 0.000000 0.000000 -9.939835 23.287895 5.768913 71.550350 45.887048 23.271436 -154.009360 41.416864 -97.852807 0.000000 0.000000 0.000000 
-0.025639 0.932889 -0.030848 -2.773044 -3.917879 0.205450 12.134410 0.706153 -28.623486 -6.544200 2.060730 33.317222 4.105446 11.603839 16.369543 0.000000 0.000000 0.000000 -4.309236 1.510963 -20.015723 6.099059 -0.661242 29.449004 -9.341016 -22.335552 15.217695 0.000000 0.000000 0.000000 -7.001154 1.130178 32.764533 5.565614 -1.792471 -11.455174 0.796900 2.987738 29.882104 -0.852929 2.123670 -21.829102 0.000000 0.000000 0.000000 -8.243875 -14.705616 5.834301 -56.781030 -42.974279 12.484789 167.166529 -41.562383 -129.810744 0.000000 0.000000 0.000000 -9.314523 23.046295 5.883089 72.510530 45.454378 23.112031 -156.321740 42.297848 -103.791871 0.000000 0.000000 0.000000 
-0.024529 0.934295 -0.030529 -2.905996 -3.936978 0.598391 12.243757 0.731097 -28.662991 -6.555048 2.046738 32.829439 3.841746 11.196192 16.245629 0.000000 0.000000 0.000000 -4.312594 1.527877 -20.168003 6.173773 -0.690313 29.021737 -9.254833 -22.202068 15.697899 0.000000 0.000000 0.000000 -6.814736 1.064760 32.411749 5.539848 -1.758865 -11.718202 0.802444 2.804604 30.017911 -1.061105 2.217554 -21.753997 0.000000 0.000000 0.000000 -8.906271 -14.255266 5.746417 -56.907363 -42.240606 12.079238 167.830400 -42.147057 -131.668869 0.000000 0.000000 0.000000 -9.294142 22.678348 5.818156 73.023947 45.056908 22.945513 -158.071884 42.505658 -107.523859 0.000000 0.000000 0.000000 
-0.021811 0.933747 -0.030227 -2.694484 -4.189531 0.742923 11.704996 0.609013 -28.420150 -6.536498 2.083140 32.894127 3.993556 11.268952 15.470552 0.000000 0.000000 0.000000 -4.586816 1.512663 -20.349471 6.071432 -0.622951 29.310757 -9.287943 -22.283787 15.580700 0.000000 0.000000 0.000000 -6.771921 1.067387 32.014456 5.259691 -1.686006 -11.399905 0.963178 3.122210 29.837616 -0.998898 2.189602 -21.223836 0.000000 0.000000 0.000000 -9.269397 -13.898580 5.599753 -57.194166 -41.497761 11.725720 167.819120 -41.864935 -131.528766 0.000000 0.000000 0.000000 -9.626742 22.175359 5.629123 72.101826 45.258620 22.753454 -156.854866 42.394150 -104.989383 0.000000 0.000000 0.000000 
-0.017912 0.930889 -0.030121 -2.453395 -4.497526 0.487049 11.218578 0.508047 -27.998624 -6.656162 2.182430 32.961001 4.313955 11.663793 15.157955 0.000000 0.000000 0.000000 -5.046181 1.456419 -20.369656 5.931937 -0.526469 30.095609 -9.517740 -22.682610 15.066199 0.000000 0.000000 0.000000 -6.606286 1.051370 32.061625 4.973196 -1.609147 -11.146703 0.896175 3.758484 29.588601 -0.638587 2.035089 -21.071602 0.000000 0.000000 0.000000 -9.968654 -13.955451 5.605543 -57.303136 -40.836310 11.346093 167.655333 -41.646254 -131.376639 0.000000 0.000000 0.000000 -9.823964 22.133958 5.548696 70.111265 45.856204 22.472428 -154.203947 41.501668 -98.533143 0.000000 0.000000 0.000000 
-0.014131 0.928064 -0.030557 -2.147902 -4.874684 0.177048 10.722822 0.414495 -27.616728 -6.746180 2.279649 33.034929 4.368567 11.571142 14.232836 0.000000 0.000000 0.000000 -5.560834 1.385051 -20.255768 5.833008 -0.435040 30.638015 -9.445024 -22.604789 14.356077 0.000000 0.000000 0.000000 -6.605381 1.108551 32.467475 4.850339 -1.575244 -11.158104 0.936677 4.172470 29.461132 -0.689547 2.099641 -20.732087 0.000000 0.000000 0.000000 -11.154069 -13.974776 5.664767 -57.147639 -40.276021 10.957889 168.378266 -41.502525 -133.167564 0.000000 0.000000 0.000000 -10.309029 22.562181 5.526767 69.164430 46.630596 22.734145 -152.260315 41.388130 -94.845589 0.000000 0.000000 0.000000 
-0.011576 0.926534 -0.031541 -2.006831 -5.339982 0.162885 10.408499 0.367928 -27.122577 -6.714510 2.300109 32.480176 4.481222 11.618199 13.725832 0.000000 0.000000 0.000000 -5.848640 1.377020 -20.452484 5.766997 -0.351637 30.753390 -9.341448 -22.482638 14.218563 0.000000 0.000000 0.000000 -6.529068 1.147012 32.656659 4.619869 -1.520931 -10.857283 0.852030 4.353889 29.274378 -0.778338 2.149536 -20.605450 0.000000 0.000000 0.000000 -10.677163 -13.913863 5.603011 -58.025174 -40.387766 11.334452 168.482710 -40.366582 -132.171300 0.000000 0.000000 0.000000 -10.845999 22.862234 5.494974 68.723781 47.434561 23.172915 -151.686080 41.233969 -93.776374 0.000000 0.000000 0.000000 
-0.010354 0.926309 -0.032851 -2.021469 -5.849336 0.245681 10.477234 0.422559 -26.809953 -6.752082 2.338724 31.770321 4.347877 11.363005 13.756598 0.000000 0.000000 0.000000 -5.936766 1.388113 -20.471027 5.718610 -0.285214 30.291976 -9.089026 -22.120700 14.344735 0.000000 0.000000 0.000000 -6.312527 1.137412 32.702536 4.387996 -1.447564 -10.839103 0.761461 4.163893 29.299046 -1.190635 2.348761 -20.498866 0.000000 0.000000 0.000000 -10.704393 -14.013878 5.721384 -58.084488 -40.282212 11.332580 168.582138 -40.206628 -131.851703 0.000000 0.000000 0.000000 -10.925150 23.463334 5.643168 68.530110 48.155873 23.471850 -152.216069 41.626149 -95.674980 0.000000 0.000000 0.000000 
-0.010116 0.926522 -0.034420 -2.058366 -6.249475 0.514396 10.539497 0.476311 -26.952073 -6.627471 2.311918 31.364139 4.314636 11.256811 13.679135 0.000000 0.000000 0.000000 -5.833970 1.453902 -20.896782 5.739255 -0.255275 30.052097 -9.051830 -22.109871 14.719228 0.000000 0.000000 0.000000 -6.573762 1.270177 32.762332 4.460181 -1.473074 -10.919226 0.871083 4.312253 29.464005 -1.323962 2.451415 -21.027582 0.000000 0.000000 0.000000 -10.185253 -14.048864 5.707846 -58.341637 -40.625107 11.612378 168.295283 -39.928964 -130.729578 0.000000 0.000000 0.000000 -11.217448 23.606593 5.620665 69.127336 48.646655 24.148479 -153.359072 41.828411 -98.033783 0.000000 0.000000 0.000000 
-0.010349 0.926523 -0.036302 -2.225658 -6.532142 0.625827 10.507535 0.500977 -27.141930 -6.413387 2.262246 31.446122 4.248102 11.092945 13.449431 0.000000 0.000000 0.000000 -5.593918 1.527046 -21.220610 5.527550 -0.151541 29.906652 -8.765449 -21.685642 14.979976 0.000000 0.000000 0.000000 -6.612084 1.321706 32.914033 4.284499 -1.421923 -10.776767 0.866252 4.298273 29.554461 -1.511526 2.556631 -21.196986 0.000000 0.000000 0.000000 -9.033959 -14.082569 5.649687 -58.766660 -40.956580 11.965659 167.237697 -39.443574 -127.415894 0.000000 0.000000 0.000000 -11.646165 23.710437 5.565007 69.282966 49.159980 24.595465 -154.449046 41.285854 -99.293523 0.000000 0.000000 0.000000 
-0.010818 0.925473 -0.038385 -2.162136 -6.653528 0.484462 10.412115 0.501926 -27.471578 -6.218201 2.228180 31.992418 4.271784 11.123407 13.478634 0.000000 0.000000 0.000000 -5.640058 1.548797 -21.547290 5.484442 -0.108499 30.381372 -8.734186 -21.648359 15.159881 0.000000 0.000000 0.000000 -6.718691 1.385970 33.222401 4.103719 -1.358139 -10.801146 0.950485 4.392453 29.881503 -1.671603 2.681358 -21.481532 0.000000 0.000000 0.000000 -8.494347 -14.502441 5.778104 -59.017478 -41.351915 12.258214 167.568563 -39.610265 -128.302566 0.000000 0.000000 0.000000 -11.810949 23.690957 5.506740 69.747922 49.509749 25.118902 -155.235052 41.348680 -100.797263 0.000000 0.000000 0.000000 
-0.011416 0.924186 -0.040243 -2.123605 -6.759427 0.344037 10.626395 0.575720 -27.610048 -6.101698 2.215732 32.384957 4.196730 10.986267 13.391003 0.000000 0.000000 0.000000 -5.547776 1.593152 -21.896443 5.345147 -0.035169 30.670970 -8.561886 -21.390880 15.452796 0.000000 0.000000 0.000000 -6.806006 1.441400 33.490114 4.023378 -1.327416 -10.880572 0.904533 4.626703 30.159517 -1.910268 2.869498 -21.372965 0.000000 0.000000 0.000000 -8.441832 -14.932479 5.933054 -58.677167 -41.322922 12.084400 167.352877 -39.177724 -127.387739 0.000000 0.000000 0.000000 -11.836689 23.998870 5.538976 70.233818 49.404097 25.364185 -155.744419 41.306949 -101.490672 0.000000 0.000000 0.000000 
-0.012214 0.923552 -0.041570 -2.010028 -6.835711 0.105680 10.622734 0.582560 -27.512576 -5.898749 2.155575 32.674910 4.149985 10.938965 13.618180 0.000000 0.000000 0.000000 -5.637935 1.588866 -22.017412 5.172065 0.058162 31.230251 -8.062994 -20.589626 15.354809 0.000000 0.000000 0.000000 -6.798177 1.453163 33.627889 3.884419 -1.311996 -10.338285 0.711703 4.533964 29.923497 -2.134628 2.995881 -21.291371 0.000000 0.000000 0.000000 -8.747935 -15.176122 6.071258 -58.174763 -40.959221 11.744919 167.571526 -38.539404 -127.216075 0.000000 0.000000 0.000000 -11.514724 24.577993 5.743893 69.880915 49.160512 24.956516 -155.712726 41.156114 -101.347005 0.000000 0.000000 0.000000 
